<?xml version="1.0" encoding="UTF-8" standalone="no"?>
<!DOCTYPE svg PUBLIC "-//W3C//DTD SVG 1.1//EN" "http://www.w3.org/Graphics/SVG/1.1/DTD/svg11.dtd">
<svg width="100%" height="100%" viewBox="0 0 2550 2550" version="1.1" xmlns="http://www.w3.org/2000/svg" xmlns:xlink="http://www.w3.org/1999/xlink" xml:space="preserve" xmlns:serif="http://www.serif.com/" style="fill-rule:evenodd;clip-rule:evenodd;stroke-linejoin:round;stroke-miterlimit:2;">
    <g transform="matrix(4.16667,0,0,4.16667,0,0)">
        <path d="M177.045,348.944C151.094,394.986 128.606,442.894 109.768,492.273C62.56,471.318 25.647,432.417 7.191,384.178L15.035,363.436C31.446,322.145 50.451,281.934 71.94,243.043C109.467,275.781 144.592,311.172 177.045,348.944Z" style="fill:rgb(224,39,38);fill-rule:nonzero;"/>
        <path d="M281.749,195.643C250.164,234.174 221.288,274.844 195.326,317.366C162.533,280.02 127.169,245.009 89.492,212.595C115.19,169.555 143.938,128.41 175.517,89.476C213.475,122.336 249.024,157.883 281.882,195.844" style="fill:rgb(224,39,38);fill-rule:nonzero;"/>
        <path d="M389.445,345.554C358.373,383.461 329.921,423.44 304.285,465.216C278.668,423.444 250.238,383.465 219.193,345.554C244.56,302.69 272.999,261.72 304.285,222.967C335.609,261.709 364.071,302.679 389.445,345.554Z" style="fill:rgb(224,39,38);fill-rule:nonzero;"/>
        <path d="M519.146,233.733C481.548,266.188 446.231,301.194 413.445,338.504C387.452,296.003 358.575,255.333 327.022,216.782C359.895,178.834 395.44,143.287 433.387,110.414C464.846,149.447 493.504,190.655 519.146,233.733Z" style="fill:rgb(224,39,38);fill-rule:nonzero;"/>
        <path d="M604.073,405.442C585.692,453.722 548.787,492.66 501.563,513.603C482.641,464.228 460.132,416.302 434.219,370.208C466.748,332.484 501.89,297.095 539.389,264.307C560.847,303.137 579.789,343.307 596.096,384.568L604.073,405.442Z" style="fill:rgb(224,39,38);fill-rule:nonzero;"/>
    </g>
</svg>
